# xmcd CD database file
#
# Track frame offsets:
#	150
#	14122
#	30215
#	43258
#	57967
#	71835
#	85362
#	100567
#	120457
#	133883
#
# Disc length: 1953 seconds
#
# Revision: 0
# Processed by: cddbd v1.5.2PL0 Copyright (c) Steve Scherf et al.
# Submitted via: CDex 1.51
#
DISCID=87079f0a
DTITLE=Andy Hampton - Faber Music - It Don't Mean A Thing - Jazz Play Along
DYEAR=1900
DGENRE=Jazz
TTITLE0=Blues In The Night
TTITLE1=Embraceable You
TTITLE2=It Don't Mean A Thing
TTITLE3=My Funny Valentine
TTITLE4=Love Is Here To Stay
TTITLE5=Summertime
TTITLE6=Someone To Watch Over Me
TTITLE7=I've Got You Under My Skin
TTITLE8=How High The Moon
TTITLE9=I Get A Kick Out Of You
EXTD=
EXTT0=
EXTT1=
EXTT2=
EXTT3=
EXTT4=
EXTT5=
EXTT6=
EXTT7=
EXTT8=
EXTT9=
PLAYORDER=
